<svg xmlns="http://www.w3.org/2000/svg" xmlns:xlink="http://www.w3.org/1999/xlink" height="62.00000000000003" width="175.0000000000001">
  <defs>
    <path id="path-4" opacity="1" fill-rule="evenodd" d="M0 0.2867226242197205L34.877771977791255 0.2867226242197205L34.877771977791255 62.00000000000006L0 62.00000000000006L0 0.2867226242197205Z"/>
    <mask id="mask-5" maskUnits="userSpaceOnUse" maskContentUnits="userSpaceOnUse">
      <rect opacity="1" x="0" y="0" width="175.0000000000001" height="62.00000000000003" fill="Black"/>
      <use xlink:href="#path-4" fill="White"/>
    </mask>
    <path id="path-7" opacity="1" fill-rule="evenodd" d="M29.050238393590234 0.11814444444442529L79.9755255178766 0.11814444444442529L79.9755255178766 59.88232111111098L29.050238393590234 59.88232111111098L29.050238393590234 0.11814444444442529Z"/>
    <mask id="mask-8" maskUnits="userSpaceOnUse" maskContentUnits="userSpaceOnUse">
      <rect opacity="1" x="0" y="0" width="175.0000000000001" height="62.00000000000003" fill="Black"/>
      <use xlink:href="#path-7" fill="White"/>
    </mask>
  </defs>
  <g opacity="1">
    <g opacity="1">
      <path fill="rgb(255,255,255)" fill-opacity="1" opacity="1" fill-rule="evenodd" d="M146.1764705882354 52.63363881910604L146.1764705882354 59.926139195551904C140.35161107766848 59.926139195551904 134.62928271988994 59.905451251221564 128.90627309199317 59.93303517699536C125.11159853364725 59.950275130603984 121.47361610248619 59.21964589667069 117.95826229260018 57.80217691097003C106.27447976555666 53.09222158509531 98.6715052465009 41.25182144669573 99.17598576902427 28.52873568353486C99.1896111713882 28.249448435075227 99.24377214578469 27.973609177337323 99.29146105405833 27.604674170112872C100.34061703607856 27.480546504130814 101.3488968110071 27.428826643304955 102.33333213179881 27.2322911721667C107.08859755679963 26.2909897051361 109.54457633289245 23.867052227764255 110.16793849104083 19.0226252637423C110.42341478536395 17.01934265442076 110.31100521586177 14.860900462621656 109.85455423667116 12.892097760517355C108.93824592769894 8.944148384143583 105.97472091355088 6.933969793378604 102.23114161406957 6.5512428232672555C98.70590938746975 6.192651788207991 95.11868158011421 6.475387027389342 91.38225561687393 6.475387027389342L91.38225561687393 19.894966916338426C89.09284738467979 18.639898293630953 86.9706909665025 17.502061355462097 84.88600440482593 16.29526460285876C84.62371540932087 16.143553011102917 84.43636612681725 15.633250384287793 84.43295977622628 15.291899302837132C84.40570897149848 10.299208737781044 84.41252167268043 5.309966163446695 84.41252167268043 0.23797181179095084C84.81787739300643 0.1414280715826935 85.1312616473761 -0.003387538729712218 85.44123955115481 0.00006045199200846053C91.16731489458344 0.04833232209615675 96.90020293919403 -0.006835529451432896 102.61946558144069 0.23797181179095084C104.67008863720753 0.32761957055576685 106.782366638671 0.913777993248831 108.70320773692168 1.6826799241932282C113.77901075253321 3.7169944500102905 116.65022366566586 7.682183779992678 117.3621509391796 13.112769166707684C118.24780209283304 19.888070934894976 116.85801105171535 25.92205469791165 111.15578016242353 30.294106933057442C110.39616398063615 30.873714173379224 109.54116998230148 31.425047889782856 108.6452997768751 31.704335138242488C107.34407385112274 32.1111980434059 107.22485158043861 32.89389193723721 107.40879451235126 34.055864810458125C108.99274753715454 44.12399771789167 117.92760513728143 52.26815180260332 127.96952667947511 52.575022976836735C133.2970590037597 52.73707854075775 138.6348103798172 52.62329484694087 143.96574905469274 52.63363881910604L146.1764705882354 52.63363881910604Z"/>
    </g>
    <g opacity="1">
      <path fill="rgb(255,255,255)" fill-opacity="1" opacity="1" fill-rule="evenodd" d="M159.6992048043436 6.732682945602217C159.6992048043436 10.901687544497715 159.67232003351882 14.859647097308043 159.75969553869936 18.81068714041066C159.76641673140557 19.08400777386522 160.6334505905049 19.554534433989524 161.1072946762918 19.56145394369723C164.4107608913874 19.63064904077434 167.71422710648304 19.59951124708964 171.01769332157866 19.59951124708964L172.94667562825708 19.59951124708964L172.94667562825708 26.408308799476643L159.77985911681796 26.408308799476643L159.77985911681796 52.84810136812333L174.9495910547037 52.84810136812333L174.9495910547037 59.933333333333366L152.35294117647072 59.933333333333366L152.35294117647072 2.842170943040401e-14L175.00000000000014 2.842170943040401e-14L175.00000000000014 6.732682945602217L159.6992048043436 6.732682945602217Z"/>
    </g>
    <g opacity="1">
      <path fill="rgb(255,255,255)" fill-opacity="1" opacity="1" fill-rule="evenodd" d="M53.52941131591797 41.426246643066435C53.52595901489258 29.5705375671387 62.39287185668945 20.642631530761747 74.15214538574219 20.666713714599638C85.88035583496094 20.687356948852567 94.68513488769531 29.525814056396513 94.70584106445312 41.29895019531253C94.72655487060547 53.30947875976565 86.11160278320312 61.996559143066435 74.1832046508789 62.00000000000003C62.171974182128906 62.00344085693362 53.53631591796875 53.395492553710966 53.52941131591797 41.426246643066435ZM65.38533020019531 52.225746154785185C69.63412475585938 55.83819580078128 74.50074768066406 56.505294799804716 79.55029296875 54.3278503417969C85.13827514648438 51.9157638549805 87.32653045654297 47.2027282714844 87.54742431640625 41.41592788696292C87.47840118408203 40.57302474975589 87.44733428955078 39.771060943603544 87.34724426269531 38.9766654968262C86.48436737060547 32.06829071044925 80.1025390625 26.67370033264163 73.4791030883789 27.275775909423857C67.57012939453125 27.815578460693388 63.524967193603516 30.853818893432646 61.571414947509766 36.447608947753935C59.60405731201172 42.08302688598636 61.18830108642578 48.65802764892581 65.38533020019531 52.225746154785185Z"/>
    </g>
    <g opacity="1">
      <g opacity="1"/>
      <g mask="url(#mask-5)">
        <g opacity="1">
          <path fill="rgb(255,255,255)" fill-opacity="1" opacity="1" fill-rule="evenodd" d="M26.516666666666655 59.776757062147006C16.433333333333326 65.19212429378543 3.8499999999999974 60.30568361581933 0.21666666666666373 49.55516384180802C0.14333333333333081 49.34184180790971 0.10999999999999939 49.1141581920905 0 48.64793220338993C1.8733333333333293 47.789740112994444 3.636666666666664 46.98409039548032 5.509999999999995 46.12274576271196C5.896666666666664 46.94205649717524 6.219999999999997 47.66398870056507 6.566666666666663 48.37120903954811C9.63333333333333 54.63425988700576 17.283333333333324 57.24421468926565 23.30333333333332 54.08466666666677C28.569999999999986 51.31743502824869 29.856666666666655 43.63574011299445 25.603333333333325 39.046689265536806C23.93666666666666 37.253242937853194 21.76333333333332 35.901502824858845 19.65666666666666 34.654146892655454C16.22666666666666 32.629864406779745 12.583333333333325 31.004203389830586 9.183333333333328 28.93788700564979C5.669999999999997 26.801163841807984 3.053333333333331 23.743197740113064 2.076666666666662 19.434723163841873C-0.080000000000003 9.900033898305129 5.586666666666663 1.4126892655367587 14.893333333333327 0.41438418079099676C17.34999999999999 0.15167231638421677 19.84999999999999 0.37585310734466426 22.393333333333324 0.37585310734466426L22.393333333333324 6.670429378531113C20.359999999999992 6.670429378531113 18.42999999999999 6.586011299435072 16.506666666666657 6.687593220339024C10.556666666666661 6.999694915254277 6.699999999999996 12.747830508474632 8.87333333333333 18.32432768361588C9.529999999999996 20.009186440678032 10.793333333333328 21.718564971751476 12.216666666666658 22.73788700564978C14.996666666666659 24.72398870056504 18.103333333333325 26.205683615819282 21.043333333333322 27.950090395480302C23.746666666666655 29.55088135593228 26.62333333333332 30.930644067796692 29.049999999999986 32.91359322033907C37.84999999999998 40.09088135593229 36.42666666666665 54.455966101695026 26.516666666666655 59.776757062147006"/>
        </g>
      </g>
    </g>
    <g opacity="1">
      <g opacity="1"/>
      <g mask="url(#mask-8)">
        <g opacity="1">
          <path fill="rgb(255,255,255)" fill-opacity="1" opacity="1" fill-rule="evenodd" d="M79.94431949250293 2.3225544444445148C79.80639177239526 3.669332222222289 79.91740676662823 5.047110000000064 79.91740676662823 6.5902211111111795L49.23353517877736 6.5902211111111795L49.23353517877736 59.88232111111108L42.454892349096454 59.88232111111108L42.454892349096454 6.6659988888889465L29.059083044982625 6.6659988888889465C29.059083044982625 4.6372211111111765 29.02207804690496 2.8151100000000717 29.09945213379461 0.9998877777778492C29.10954440599761 0.7139988888889663 29.583881199538556 0.345443333333404 29.92029027297185 0.20422111111118318C30.260063437139486 0.0664433333334037 30.694031141868436 0.15944333333340704 31.087629757785397 0.15944333333340704C46.66336985774698 0.15944333333340704 62.23910995770857 0.19044333333340818 77.81485005767014 0.11811000000007223C79.52717224144563 0.11122111111118962 80.12598039215689 0.5727766666667358 79.94431949250293 2.3225544444445148"/>
        </g>
      </g>
    </g>
    <g opacity="1">
      <path fill="rgb(255,255,255)" fill-opacity="1" opacity="1" fill-rule="evenodd" d="M146.17647058823528 40.608950502878926L146.17647058823528 47.53333333333337L123.52941176470586 47.53333333333337L123.52941176470586 2.842170943040401e-14L145.60324902908022 2.842170943040401e-14L145.60324902908022 6.723522870487098L130.82016671402857 6.723522870487098L130.82016671402857 19.902755331504718L143.59747087240692 19.902755331504718L143.59747087240692 26.781327995650813L130.80690537084396 26.781327995650813L130.80690537084396 40.608950502878926L146.17647058823528 40.608950502878926Z"/>
    </g>
  </g>
</svg>